<svg id="Layer_1" enable-background="new 0 0 512 512" height="512" viewBox="0 0 512 512" width="512" xmlns="http://www.w3.org/2000/svg"><g><circle cx="256" cy="256" fill="#ff9614" r="47.134"/><path d="m346.985 220.791c29.414-16.982 50.572-17.875 69.238-18.663 15.177-.64 29.512-1.245 44.228-9.741 22.508-12.995 30.247-41.878 17.252-64.386-12.994-22.507-41.878-30.247-64.385-17.253-14.716 8.496-22.407 20.608-30.55 33.432-10.016 15.771-21.368 33.648-50.782 50.63-7.174 4.142-9.632 13.316-5.49 20.49 4.141 7.175 13.315 9.633 20.489 5.491z" fill="#ff9614"/><path d="m460.451 319.614c-14.716-8.496-29.051-9.101-44.228-9.741-18.666-.788-39.824-1.681-69.238-18.663-7.174-4.142-16.348-1.684-20.49 5.49s-1.684 16.348 5.49 20.49c29.414 16.982 40.766 34.859 50.782 50.63 8.143 12.824 15.835 24.936 30.55 33.432 22.507 12.995 51.391 5.255 64.385-17.253 12.996-22.507 5.256-51.391-17.251-64.385z" fill="#fff000"/><path d="m180.015 194.81c-29.414-16.982-40.766-34.859-50.782-50.63-8.143-12.824-15.835-24.936-30.55-33.432-22.507-12.995-51.391-5.255-64.385 17.253-12.995 22.507-5.255 51.391 17.252 64.386 14.716 8.496 29.051 9.101 44.228 9.741 18.666.788 39.824 1.681 69.238 18.663 7.174 4.142 16.348 1.684 20.49-5.49 4.142-7.175 1.683-16.349-5.491-20.491z" fill="#b428ff"/><path d="m165.015 291.209c-29.414 16.982-50.572 17.875-69.238 18.663-15.177.64-29.512 1.245-44.228 9.741-22.507 12.995-30.247 41.878-17.252 64.386 12.995 22.507 41.878 30.247 64.385 17.253 14.716-8.496 22.407-20.608 30.55-33.432 10.016-15.771 21.368-33.648 50.782-50.63 7.174-4.142 9.633-13.316 5.49-20.49-4.141-7.175-13.315-9.633-20.489-5.491z" fill="#00b4ff"/><path d="m346.985 220.791c29.414-16.982 50.572-17.875 69.238-18.663 15.177-.64 29.512-1.245 44.228-9.741 22.508-12.995 30.247-41.878 17.252-64.386l-151.208 87.3c4.142 7.174 13.316 9.632 20.49 5.49z" fill="#ff691e"/><path d="m460.451 319.614c-14.716-8.496-29.051-9.101-44.228-9.741-18.666-.788-39.824-1.681-69.238-18.663-7.174-4.142-16.348-1.684-20.49 5.49l151.208 87.3c12.995-22.508 5.255-51.392-17.252-64.386z" fill="#ffc30a"/><path d="m180.015 194.81c-29.414-16.982-40.766-34.859-50.782-50.63-8.143-12.824-15.835-24.936-30.55-33.432-22.507-12.995-51.391-5.255-64.385 17.253l151.208 87.3c4.142-7.175 1.683-16.349-5.491-20.491z" fill="#7300ff"/><path d="m34.297 383.999c12.995 22.507 41.878 30.247 64.385 17.253 14.716-8.496 22.407-20.608 30.55-33.432 10.016-15.771 21.368-33.648 50.782-50.63 7.174-4.142 9.633-13.316 5.49-20.49z" fill="#0082ff"/><path d="m107.584 241h-92.584c-8.284 0-15 6.716-15 15s6.716 15 15 15h92.584c8.284 0 15-6.716 15-15s-6.716-15-15-15z" fill="#ff9614"/><path d="m497 241h-92.584c-8.284 0-15 6.716-15 15s6.716 15 15 15h92.584c8.284 0 15-6.716 15-15s-6.716-15-15-15z" fill="#00b4ff"/><path d="m148.492 39.787c-4.142-7.174-13.316-9.633-20.49-5.491s-9.633 13.316-5.491 20.49l46.291 80.18c4.142 7.174 13.316 9.633 20.49 5.49 7.174-4.142 9.633-13.316 5.491-20.49z" fill="#fff000"/><path d="m343.198 377.033c-4.142-7.174-13.316-9.633-20.49-5.49-7.174 4.142-9.632 13.316-5.49 20.49l46.292 80.18c4.142 7.174 13.316 9.633 20.49 5.491 7.175-4.142 9.633-13.316 5.49-20.49z" fill="#b428ff"/><path d="m322.707 140.458c7.174 4.142 16.348 1.684 20.49-5.49l46.291-80.18c4.142-7.174 1.684-16.348-5.49-20.49s-16.348-1.684-20.49 5.491l-46.292 80.18c-4.141 7.173-1.683 16.347 5.491 20.489z" fill="#82ff00"/><path d="m189.293 371.542c-7.174-4.142-16.348-1.684-20.49 5.49l-46.291 80.18c-4.142 7.174-1.684 16.348 5.491 20.49 7.174 4.142 16.348 1.684 20.49-5.491l46.292-80.18c4.14-7.173 1.682-16.347-5.492-20.489z" fill="#ff0028"/><path d="m256 0c-25.989 0-47.134 21.144-47.134 47.133 0 16.992 6.644 29.709 13.678 43.173 8.65 16.56 18.456 35.33 18.456 69.294 0 8.284 6.716 15 15 15s15-6.716 15-15c0-33.964 9.806-52.734 18.456-69.293 7.034-13.464 13.678-26.181 13.678-43.173 0-25.99-21.145-47.134-47.134-47.134z" fill="#ff0028"/><path d="m271 352.4c0-8.284-6.716-15-15-15s-15 6.716-15 15c0 33.964-9.806 52.734-18.456 69.293-7.034 13.464-13.678 26.181-13.678 43.173 0 25.99 21.145 47.134 47.134 47.134s47.134-21.144 47.134-47.133c0-16.992-6.644-29.709-13.678-43.173-8.65-16.56-18.456-35.33-18.456-69.294z" fill="#82ff00"/><path d="m256 0v174.6c8.284 0 15-6.716 15-15 0-33.964 9.806-52.734 18.456-69.293 7.034-13.464 13.678-26.181 13.678-43.173 0-25.99-21.145-47.134-47.134-47.134z" fill="#d2003c"/><path d="m271 352.4c0-8.284-6.716-15-15-15v174.6c25.989 0 47.134-21.144 47.134-47.133 0-16.992-6.644-29.709-13.678-43.173-8.65-16.56-18.456-35.33-18.456-69.294z" fill="#00e65a"/><path d="m256 208.867c25.989 0 47.134 21.144 47.134 47.133s-21.145 47.133-47.134 47.133z" fill="#ff691e"/></g></svg>