<svg id="Layer_1" enable-background="new 0 0 512 512" height="512" viewBox="0 0 512 512" width="512" xmlns="http://www.w3.org/2000/svg"><g><path d="m305.852 367.933h-99.705c-19.319 0-28.507 25.095-10.985 37.311 26.845 18.717 45.838 37.283 45.838 59.623 0 8.284 6.716 15 15 15s15-6.716 15-15c0-22.34 18.993-40.906 45.838-59.622 17.522-12.217 8.333-37.312-10.986-37.312z" fill="#b428ff"/><path d="m271 464.867c0-22.34 18.993-40.906 45.838-59.622 17.522-12.216 8.334-37.311-10.985-37.311h-49.853v111.933c8.284 0 15-6.716 15-15z" fill="#7300ff"/><path d="m415.508 293.311h-319.016c-19.171 0-28.926 24.246-12.849 37.311 23.537 19.128 49.169 35.037 72.839 49.722 13.773 8.545 26.973 16.737 38.681 24.9h121.675c11.708-8.163 24.908-16.354 38.681-24.9 23.67-14.685 49.302-30.594 72.839-49.722 16.076-13.065 6.321-37.311-12.85-37.311z" fill="#00b4ff"/><path d="m355.519 380.345c23.67-14.685 49.302-30.594 72.839-49.722 16.076-13.065 6.322-37.311-12.849-37.311h-159.509v111.933h60.838c11.708-8.164 24.908-16.355 38.681-24.9z" fill="#0082ff"/><path d="m468.892 218.689h-425.784c-18.134 0-31.92 19.219-22.681 37.311 15.402 30.161 38.116 54.224 63.216 74.622h344.714c25.1-20.398 47.814-44.462 63.216-74.622 9.239-18.092-4.547-37.311-22.681-37.311z" fill="#82ff00"/><path d="m491.573 256c9.239-18.092-4.547-37.311-22.681-37.311h-212.892v111.933h172.357c25.1-20.398 47.814-44.461 63.216-74.622z" fill="#00e65a"/><path d="m476.707 144.067h-441.414c-19.607 0-36.16 16.295-34.858 37.311 1.77 28.551 9.02 53.137 19.992 74.622h471.146c10.972-21.485 18.222-46.071 19.992-74.622 1.302-21.017-15.251-37.311-34.858-37.311z" fill="#fff000"/><path d="m511.565 181.378c1.302-21.016-15.251-37.311-34.858-37.311h-220.707v111.933h235.573c10.972-21.485 18.222-46.071 19.992-74.622z" fill="#ffc30a"/><path d="m497.53 106.756c-18.386-36.361-55.107-37.311-60.92-37.311h-120.846c-42.921 0-59.762 35.164-59.764 37.311-.001-2.147-16.843-37.311-59.764-37.311h-120.846c-5.813 0-42.534.95-60.92 37.311-9.25 18.314-14.47 38.996-14.47 60.877 0 4.685.157 9.259.435 13.744h511.13c.278-4.486.435-9.059.435-13.744 0-21.881-5.22-42.563-14.47-60.877z" fill="#ff9614"/><path d="m512 167.633c0-21.881-5.22-42.563-14.47-60.878-18.386-36.361-55.107-37.311-60.92-37.311h-120.846c-42.919 0-59.761 35.161-59.764 37.31v74.623h255.565c.278-4.485.435-9.058.435-13.744z" fill="#ff691e"/><path d="m256 105.7c-22.526-43.654-68.084-73.566-120.5-73.566-52.834 0-98.696 30.399-121.03 74.622h483.06c-22.335-44.223-68.196-74.622-121.03-74.622-52.416-.001-97.974 29.912-120.5 73.566z" fill="#ff0028"/><path d="m376.5 32.133c-52.416 0-97.973 29.913-120.5 73.566v1.056h241.53c-22.334-44.222-68.196-74.622-121.03-74.622z" fill="#d2003c"/></g></svg>