<svg id="Layer_1" enable-background="new 0 0 512 512" height="512" viewBox="0 0 512 512" width="512" xmlns="http://www.w3.org/2000/svg"><g><path d="m120.36 411.746c-5.858-5.858-5.858-15.355 0-21.213l21.526-21.527-13.493-13.494c-5.858-5.858-5.858-15.355 0-21.213 5.857-5.858 15.355-5.858 21.213 0l24.1 24.1c5.858 5.858 5.858 15.355 0 21.213l-32.133 32.133c-5.858 5.86-15.357 5.858-21.213.001z" fill="#d2003c"/><path d="m232.827 411.746c-5.858-5.858-5.858-15.355 0-21.213l21.526-21.527-13.493-13.494c-5.858-5.858-5.858-15.355 0-21.213 5.857-5.858 15.355-5.858 21.213 0l24.1 24.1c5.858 5.858 5.858 15.355 0 21.213l-32.133 32.133c-5.859 5.86-15.357 5.858-21.213.001z" fill="#d2003c"/><path d="m259.499 34.133c0-18.85-15.283-34.133-34.133-34.133s-34.133 15.283-34.133 34.133c0-18.85-15.284-34.133-34.134-34.133s-34.133 15.283-34.133 34.133v51.2c0 18.85 15.283 34.133 34.133 34.133s34.133-15.283 34.133-34.133c0 18.85 15.283 34.133 34.133 34.133s34.133-15.283 34.133-34.133c14.138 0 25.6-11.461 25.6-25.6.001-14.138-11.46-25.6-25.599-25.6z" fill="#e68764"/><path d="m381.033 70.333h-243.067c-8.284 0-15 6.716-15 15v130.734c0 3.713 1.475 7.274 4.101 9.899l64.166 64.166-25.766 206.13c-1.044 8.356 5.471 15.736 13.892 15.736h194.415c8.421 0 14.936-7.381 13.892-15.736l-25.766-206.13c21.854-21.854 34.133-51.499 34.133-82.406v-122.393c0-8.284-6.716-15-15-15z" fill="#ffa582"/><path d="m244.499 70.333c8.284 0 15 6.716 15 15v34.133c0 28.277-22.923 51.2-51.2 51.2h-17.067c47.13 0 85.333 38.204 85.333 85.333v256h96.075c9.022 0 16.003-7.908 14.884-16.861l-25.626-205.006c21.854-21.854 34.133-51.499 34.133-82.406v-122.393c0-8.284-6.716-15-15-15z" fill="#e68764"/><path d="m361.899 0c-18.85 0-34.134 15.283-34.134 34.133.001-18.85-15.282-34.133-34.132-34.133s-34.133 15.283-34.133 34.133v51.2c0 18.85 15.283 34.133 34.133 34.133s34.133-15.283 34.133-34.133c0 18.85 15.283 34.133 34.134 34.133 18.85 0 34.133-15.283 34.133-34.133v-51.2c0-18.85-15.284-34.133-34.134-34.133z" fill="#cd6946"/><path d="m164.6 426.667c18.851 0 34.133-15.283 34.133-34.134v-34.133h-34.134c-4.142 0-7.5 3.358-7.5 7.5v53.267c0 4.142 3.359 7.499 7.501 7.5z" fill="#ff0028"/><path d="m198.733 358.4-34.133 68.267h47.45c18.851 0 34.133-15.283 34.133-34.134v-34.133z" fill="#ff9614"/><path d="m246.183 358.4-34.133 68.267h47.45c18.851 0 34.133-15.283 34.133-34.134v-34.133z" fill="#fff000"/><path d="m293.633 392.533v-34.133h-17.067v63.689c10.2-5.903 17.067-16.924 17.067-29.556z" fill="#ffc30a"/><path d="m293.633 358.4-34.133 68.267h47.45c18.851 0 34.133-15.283 34.133-34.134v-34.133z" fill="#82ff00"/><path d="m306.95 426.667c18.851 0 34.133-15.283 34.133-34.134v-34.133h-47.45l-17.067 34.134v34.133z" fill="#00e65a"/><path d="m341.083 358.4-34.133 68.267h47.45c18.851 0 34.133-15.283 34.133-34.134v-34.133z" fill="#0082ff"/><path d="m388.533 358.4-34.133 68.267h34.134c4.142 0 7.5-3.358 7.5-7.5v-53.267c-.001-4.142-3.359-7.5-7.501-7.5z" fill="#7300ff"/></g></svg>